<?xml version="1.0" encoding="UTF-8" standalone="no"?>
<svg xmlns="http://www.w3.org/2000/svg" version="1.1" viewBox="0 0 165 43">
  <g
     transform="translate(-143.12994,-231.08267)"
     id="layer1">
    <g
       transform="translate(-370.72121,184.88867)"
       id="g4393">
      <g
         id="text3368"
         style="font-style:normal;font-weight:normal;font-size:40px;line-height:125%;font-family:sans-serif;letter-spacing:1px;word-spacing:0px;fill:#b8b5b0;fill-opacity:1;stroke:none;stroke-width:1px;stroke-linecap:butt;stroke-linejoin:miter;stroke-opacity:1">
        <path
           id="path5486"
           style="font-style:normal;font-variant:normal;font-weight:normal;font-stretch:normal;font-size:16.25px;font-family:'Trebuchet MS';-inkscape-font-specification:'Trebuchet MS';letter-spacing:1px;fill:#afaba5;fill-opacity:1"
           d="m 538.92999,78.322624 0,10.195923 -1.58691,0 0,-10.195923 -3.69751,0 0,-1.428222 9.14856,0 0,1.428222 -3.86414,0 z" />
        <path
           id="path5488"
           style="font-style:normal;font-variant:normal;font-weight:normal;font-stretch:normal;font-size:16.25px;font-family:'Trebuchet MS';-inkscape-font-specification:'Trebuchet MS';letter-spacing:1px;fill:#afaba5;fill-opacity:1"
           d="m 550.13385,88.518547 -0.80139,-2.451782 -4.32434,0 -0.85694,2.451782 -1.77734,0 4.72107,-11.782837 0.42053,0 4.37988,11.782837 -1.76147,0 z m -2.90405,-8.735962 -1.80115,5.117798 3.45154,0 -1.65039,-5.117798 z" />
        <path
           id="path5490"
           style="font-style:normal;font-variant:normal;font-weight:normal;font-stretch:normal;font-size:16.25px;font-family:'Trebuchet MS';-inkscape-font-specification:'Trebuchet MS';letter-spacing:1px;fill:#afaba5;fill-opacity:1"
           d="m 560.18719,88.518547 -2.88818,-4.665527 -2.66601,4.665527 -1.60279,0 3.42774,-6.030273 -3.15003,-5.601807 1.56311,0.0079 2.48352,4.395752 2.73743,-4.395752 1.59485,0 -3.61023,5.62561 3.79272,5.998535 -1.68213,0 z" />
      </g>
      <g
         id="text3380"
         style="font-style:normal;font-weight:normal;font-size:40px;line-height:125%;font-family:sans-serif;letter-spacing:1px;word-spacing:0px;fill:#807c73;fill-opacity:1;stroke:none;stroke-width:1px;stroke-linecap:butt;stroke-linejoin:miter;stroke-opacity:1">
        <path
           id="path5493"
           style="font-style:normal;font-variant:normal;font-weight:bold;font-stretch:normal;font-size:16.25px;font-family:'Trebuchet MS';-inkscape-font-specification:'Trebuchet MS Bold';letter-spacing:1px;fill:#807c73;fill-opacity:1"
           d="m 579.17706,78.763451 0,2.721557 4.08631,0 0,1.75354 -4.08631,0 0,5.316162 -2.06299,0 0,-11.624145 7.65687,0 0,1.832886 -5.59388,0 z" />
        <path
           id="path5495"
           style="font-style:normal;font-variant:normal;font-weight:bold;font-stretch:normal;font-size:16.25px;font-family:'Trebuchet MS';-inkscape-font-specification:'Trebuchet MS Bold';letter-spacing:1px;fill:#807c73;fill-opacity:1"
           d="m 587.64349,88.55471 0,-11.624145 2.06299,0 0,11.624145 -2.06299,0 z" />
        <path
           id="path5497"
           style="font-style:normal;font-variant:normal;font-weight:bold;font-stretch:normal;font-size:16.25px;font-family:'Trebuchet MS';-inkscape-font-specification:'Trebuchet MS Bold';letter-spacing:1px;fill:#807c73;fill-opacity:1"
           d="m 600.76752,88.713402 -5.64148,-7.355347 0,7.20459 -1.98364,0 0,-11.63208 0.99182,0 5.49072,7.01416 0,-7.01416 1.98364,0 0,11.782837 -0.84106,0 z" />
        <path
           id="path5499"
           style="font-style:normal;font-variant:normal;font-weight:bold;font-stretch:normal;font-size:16.25px;font-family:'Trebuchet MS';-inkscape-font-specification:'Trebuchet MS Bold';letter-spacing:1px;fill:#807c73;fill-opacity:1"
           d="m 611.59052,88.55471 -3.23731,-4.951171 -1.29333,1.769409 0,3.181762 -2.06299,0 0,-11.624145 2.06299,0 0,5.562134 3.95141,-5.562134 2.34863,0 -3.64196,5.078125 4.34021,6.54602 -2.46765,0 z" />
        <path
           id="path5501"
           style="font-style:normal;font-variant:normal;font-weight:bold;font-stretch:normal;font-size:16.25px;font-family:'Trebuchet MS';-inkscape-font-specification:'Trebuchet MS Bold';letter-spacing:1px;fill:#807c73;fill-opacity:1"
           d="m 615.47076,82.643456 q 0,-2.483521 1.35682,-4.197388 1.36474,-1.721802 3.64196,-1.721802 2.50733,0 3.8324,1.555176 1.32507,1.555176 1.32507,4.364014 0,2.808837 -1.38855,4.459228 -1.38061,1.650391 -3.92761,1.650391 -2.3407,0 -3.59436,-1.634522 -1.24573,-1.634521 -1.24573,-4.475097 z m 2.14234,0 q 0,2.039184 0.69031,3.157958 0.6903,1.118775 2.00744,1.118775 1.54724,0 2.35657,-1.094971 0.81726,-1.094971 0.81726,-3.181762 0,-4.086304 -3.01514,-4.086304 -1.38061,0 -2.11853,1.11084 -0.73791,1.102905 -0.73791,2.975464 z" />
        <path
           id="path5503"
           style="font-style:normal;font-variant:normal;font-weight:bold;font-stretch:normal;font-size:16.25px;font-family:'Trebuchet MS';-inkscape-font-specification:'Trebuchet MS Bold';letter-spacing:1px;fill:#807c73;fill-opacity:1"
           d="m 636.07709,88.713402 -5.64148,-7.355347 0,7.20459 -1.98364,0 0,-11.63208 0.99182,0 5.49072,7.01416 0,-7.01416 1.98364,0 0,11.782837 -0.84106,0 z" />
        <path
           id="path5505"
           style="font-style:normal;font-variant:normal;font-weight:bold;font-stretch:normal;font-size:16.25px;font-family:'Trebuchet MS';-inkscape-font-specification:'Trebuchet MS Bold';letter-spacing:1px;fill:#807c73;fill-opacity:1"
           d="m 639.75104,87.91201 0.76172,-1.848755 q 1.22192,0.856934 2.40417,0.856934 1.81702,0 1.81702,-1.269531 0,-0.595093 -0.42847,-1.134644 -0.42847,-0.539551 -1.76941,-1.206055 -1.33301,-0.674438 -1.80115,-1.102905 -0.4602,-0.436401 -0.71411,-1.031494 -0.24597,-0.595093 -0.24597,-1.317139 0,-1.348877 0.98389,-2.237549 0.99182,-0.888671 2.53906,-0.888671 2.01538,0 2.9596,0.753784 l -0.62684,1.777344 q -1.08703,-0.777588 -2.29309,-0.777588 -0.71411,0 -1.11084,0.380859 -0.38879,0.372925 -0.38879,0.975952 0,0.999756 2.21374,2.078858 1.16639,0.571289 1.68213,1.055297 0.51575,0.476075 0.78553,1.118775 0.26977,0.634765 0.26977,1.420288 0,1.412353 -1.11877,2.324829 -1.11084,0.912476 -2.9834,0.912476 -1.62659,0 -2.93579,-0.841065 z" />
        <path
           id="path5507"
           style="font-style:normal;font-variant:normal;font-weight:bold;font-stretch:normal;font-size:16.25px;font-family:'Trebuchet MS';-inkscape-font-specification:'Trebuchet MS Bold';letter-spacing:1px;fill:#807c73;fill-opacity:1"
           d="m 649.62189,76.930565 2.06299,0 0,7.879028 q 0,0.936279 0.57128,1.523438 0.57129,0.587158 1.57105,0.587158 1.11877,0 1.73767,-0.571289 0.62683,-0.579224 0.62683,-1.57898 l 0,-7.839355 2.06299,0 0,7.998047 q 0,1.793213 -1.20605,2.808838 -1.19813,1.015625 -3.20557,1.015625 -2.02332,0 -3.12622,-0.991822 -1.09497,-0.991821 -1.09497,-2.840576 l 0,-7.990112 z" />
        <path
           id="path5509"
           style="font-style:normal;font-variant:normal;font-weight:bold;font-stretch:normal;font-size:16.25px;font-family:'Trebuchet MS';-inkscape-font-specification:'Trebuchet MS Bold';letter-spacing:1px;fill:#807c73;fill-opacity:1"
           d="m 661.63507,88.55471 0,-11.624145 2.06299,0 0,9.79126 5.25268,0 0,1.832885 -7.31567,0 z" />
        <path
           id="path5511"
           style="font-style:normal;font-variant:normal;font-weight:bold;font-stretch:normal;font-size:16.25px;font-family:'Trebuchet MS';-inkscape-font-specification:'Trebuchet MS Bold';letter-spacing:1px;fill:#807c73;fill-opacity:1"
           d="m 675.13995,78.763451 0,9.791259 -2.06298,0 0,-9.791259 -3.69751,0 0,-1.832886 9.62463,0 0,1.832886 -3.86414,0 z" />
      </g>
    </g>
    <g
       transform="translate(-385.17933,185.085)"
       id="g4498">
      <g
         id="text3384"
         style="font-style:normal;font-weight:normal;font-size:16.25px;line-height:125%;font-family:sans-serif;letter-spacing:1px;word-spacing:0px;fill:#aeaba6;fill-opacity:1;stroke:none;stroke-width:1px;stroke-linecap:butt;stroke-linejoin:miter;stroke-opacity:1">
        <path
           id="path5514"
           style="font-style:normal;font-variant:normal;font-weight:normal;font-stretch:normal;font-size:16.25px;font-family:'Trebuchet MS';-inkscape-font-specification:'Trebuchet MS';letter-spacing:1px;fill:#aeaba6;fill-opacity:1"
           d="m 536.06927,57.82811 -0.80139,-2.451782 -4.32434,0 -0.85693,2.451782 -1.77734,0 4.72106,-11.782837 0.42054,0 4.37988,11.782837 -1.76148,0 z m -2.90405,-8.735962 -1.80115,5.117798 3.45154,0 -1.65039,-5.117798 z" />
        <path
           id="path5516"
           style="font-style:normal;font-variant:normal;font-weight:normal;font-stretch:normal;font-size:16.25px;font-family:'Trebuchet MS';-inkscape-font-specification:'Trebuchet MS';letter-spacing:1px;fill:#aeaba6;fill-opacity:1"
           d="m 540.05267,46.203964 1.58692,0 0,7.958374 q 0,1.063233 0.67444,1.75354 0.67443,0.682373 1.78527,0.682373 1.17432,0 1.84876,-0.666504 0.67444,-0.666503 0.67444,-1.809082 l 0,-7.918701 1.58691,0 0,8.085327 q 0,1.761475 -1.1029,2.753296 -1.09497,0.983887 -2.99134,0.983887 -1.9519,0 -3.0072,-0.968018 -1.0553,-0.968017 -1.0553,-2.777099 l 0,-8.077393 z" />
        <path
           id="path5518"
           style="font-style:normal;font-variant:normal;font-weight:normal;font-stretch:normal;font-size:16.25px;font-family:'Trebuchet MS';-inkscape-font-specification:'Trebuchet MS';letter-spacing:1px;fill:#aeaba6;fill-opacity:1"
           d="m 553.93048,57.82811 -2.3407,0 0,-11.624146 q 2.23755,-0.07934 2.86438,-0.07934 2.43592,0 3.8562,1.483764 1.42029,1.47583 1.42029,3.935547 0,6.28418 -5.80017,6.28418 z m -0.75378,-10.195923 0,8.688354 q 0.53161,0.07935 1.31714,0.07935 1.66626,0 2.6184,-1.245727 0.95215,-1.253663 0.95215,-3.475342 0,-4.125977 -3.70544,-4.125977 -0.22217,0 -1.18225,0.07935 z" />
        <path
           id="path5520"
           style="font-style:normal;font-variant:normal;font-weight:normal;font-stretch:normal;font-size:16.25px;font-family:'Trebuchet MS';-inkscape-font-specification:'Trebuchet MS';letter-spacing:1px;fill:#aeaba6;fill-opacity:1"
           d="m 562.83331,57.82811 0,-11.624146 1.58692,0 0,11.624146 -1.58692,0 z" />
        <path
           id="path5522"
           style="font-style:normal;font-variant:normal;font-weight:normal;font-stretch:normal;font-size:16.25px;font-family:'Trebuchet MS';-inkscape-font-specification:'Trebuchet MS';letter-spacing:1px;fill:#aeaba6;fill-opacity:1"
           d="m 572.33124,47.632187 0,10.195923 -1.58692,0 0,-10.195923 -3.69751,0 0,-1.428223 9.14856,0 0,1.428223 -3.86413,0 z" />
      </g>
      <g
         id="text3400"
         style="font-style:normal;font-weight:normal;font-size:40px;line-height:125%;font-family:sans-serif;letter-spacing:1px;word-spacing:0px;fill:#807c73;fill-opacity:1;stroke:none;stroke-width:1px;stroke-linecap:butt;stroke-linejoin:miter;stroke-opacity:1">
        <path
           id="path5525"
           style="font-style:normal;font-variant:normal;font-weight:bold;font-stretch:normal;font-size:16.25px;font-family:'Trebuchet MS';-inkscape-font-specification:'Trebuchet MS Bold';letter-spacing:1px;fill:#807c73;fill-opacity:1"
           d="m 593.63983,48.03685 0,2.721558 4.08631,0 0,1.75354 -4.08631,0 0,5.316162 -2.06299,0 0,-11.624146 7.65686,0 0,1.832886 -5.59387,0 z" />
        <path
           id="path5527"
           style="font-style:normal;font-variant:normal;font-weight:bold;font-stretch:normal;font-size:16.25px;font-family:'Trebuchet MS';-inkscape-font-specification:'Trebuchet MS Bold';letter-spacing:1px;fill:#807c73;fill-opacity:1"
           d="m 602.10626,57.82811 0,-11.624146 2.06299,0 0,11.624146 -2.06299,0 z" />
        <path
           id="path5529"
           style="font-style:normal;font-variant:normal;font-weight:bold;font-stretch:normal;font-size:16.25px;font-family:'Trebuchet MS';-inkscape-font-specification:'Trebuchet MS Bold';letter-spacing:1px;fill:#807c73;fill-opacity:1"
           d="m 615.23029,57.986801 -5.64148,-7.355347 0,7.20459 -1.98365,0 0,-11.63208 0.99182,0 5.49073,7.01416 0,-7.01416 1.98364,0 0,11.782837 -0.84106,0 z" />
        <path
           id="path5531"
           style="font-style:normal;font-variant:normal;font-weight:bold;font-stretch:normal;font-size:16.25px;font-family:'Trebuchet MS';-inkscape-font-specification:'Trebuchet MS Bold';letter-spacing:1px;fill:#807c73;fill-opacity:1"
           d="m 626.05328,57.82811 -3.2373,-4.951172 -1.29334,1.769409 0,3.181763 -2.06298,0 0,-11.624146 2.06298,0 0,5.562134 3.95142,-5.562134 2.34863,0 -3.64196,5.078125 4.34021,6.546021 -2.46766,0 z" />
        <path
           id="path5533"
           style="font-style:normal;font-variant:normal;font-weight:bold;font-stretch:normal;font-size:16.25px;font-family:'Trebuchet MS';-inkscape-font-specification:'Trebuchet MS Bold';letter-spacing:1px;fill:#807c73;fill-opacity:1"
           d="m 629.93353,51.916855 q 0,-2.483521 1.35681,-4.197388 1.36475,-1.721802 3.64197,-1.721802 2.50733,0 3.8324,1.555176 1.32507,1.555176 1.32507,4.364014 0,2.808838 -1.38855,4.459228 -1.38061,1.650391 -3.92761,1.650391 -2.3407,0 -3.59436,-1.634521 -1.24573,-1.634522 -1.24573,-4.475098 z m 2.14234,0 q 0,2.039184 0.6903,3.157959 0.69031,1.118774 2.00745,1.118774 1.54724,0 2.35657,-1.09497 0.81726,-1.094971 0.81726,-3.181763 0,-4.086304 -3.01514,-4.086304 -1.38061,0 -2.11853,1.11084 -0.73791,1.102905 -0.73791,2.975464 z" />
        <path
           id="path5535"
           style="font-style:normal;font-variant:normal;font-weight:bold;font-stretch:normal;font-size:16.25px;font-family:'Trebuchet MS';-inkscape-font-specification:'Trebuchet MS Bold';letter-spacing:1px;fill:#807c73;fill-opacity:1"
           d="m 650.53986,57.986801 -5.64148,-7.355347 0,7.20459 -1.98365,0 0,-11.63208 0.99183,0 5.49072,7.01416 0,-7.01416 1.98364,0 0,11.782837 -0.84106,0 z" />
        <path
           id="path5537"
           style="font-style:normal;font-variant:normal;font-weight:bold;font-stretch:normal;font-size:16.25px;font-family:'Trebuchet MS';-inkscape-font-specification:'Trebuchet MS Bold';letter-spacing:1px;fill:#807c73;fill-opacity:1"
           d="m 654.21381,57.18541 0.76171,-1.848755 q 1.22193,0.856933 2.40418,0.856933 1.81702,0 1.81702,-1.269531 0,-0.595093 -0.42847,-1.134644 -0.42847,-0.53955 -1.76941,-1.206054 -1.33301,-0.674439 -1.80115,-1.102906 -0.4602,-0.436401 -0.71411,-1.031494 -0.24597,-0.595092 -0.24597,-1.317138 0,-1.348877 0.98389,-2.237549 0.99182,-0.888672 2.53906,-0.888672 2.01538,0 2.95959,0.753784 l -0.62683,1.777344 q -1.08703,-0.777588 -2.29309,-0.777588 -0.71411,0 -1.11084,0.380859 -0.38879,0.372925 -0.38879,0.975953 0,0.999755 2.21374,2.078857 1.16639,0.571289 1.68213,1.055298 0.51575,0.476074 0.78552,1.118774 0.26978,0.634766 0.26978,1.420288 0,1.412354 -1.11877,2.324829 -1.11084,0.912476 -2.9834,0.912476 -1.62659,0 -2.93579,-0.841064 z" />
        <path
           id="path5539"
           style="font-style:normal;font-variant:normal;font-weight:bold;font-stretch:normal;font-size:16.25px;font-family:'Trebuchet MS';-inkscape-font-specification:'Trebuchet MS Bold';letter-spacing:1px;fill:#807c73;fill-opacity:1"
           d="m 664.08466,46.203964 2.06298,0 0,7.879029 q 0,0.936279 0.57129,1.523437 0.57129,0.587158 1.57105,0.587158 1.11877,0 1.73767,-0.571289 0.62683,-0.579223 0.62683,-1.578979 l 0,-7.839356 2.06299,0 0,7.998047 q 0,1.793213 -1.20606,2.808838 -1.19812,1.015625 -3.20556,1.015625 -2.02332,0 -3.12622,-0.991821 -1.09497,-0.991822 -1.09497,-2.840576 l 0,-7.990113 z" />
        <path
           id="path5541"
           style="font-style:normal;font-variant:normal;font-weight:bold;font-stretch:normal;font-size:16.25px;font-family:'Trebuchet MS';-inkscape-font-specification:'Trebuchet MS Bold';letter-spacing:1px;fill:#807c73;fill-opacity:1"
           d="m 676.09784,57.82811 0,-11.624146 2.06299,0 0,9.79126 5.25268,0 0,1.832886 -7.31567,0 z" />
        <path
           id="path5543"
           style="font-style:normal;font-variant:normal;font-weight:bold;font-stretch:normal;font-size:16.25px;font-family:'Trebuchet MS';-inkscape-font-specification:'Trebuchet MS Bold';letter-spacing:1px;fill:#807c73;fill-opacity:1"
           d="m 689.60272,48.03685 0,9.79126 -2.06299,0 0,-9.79126 -3.69751,0 0,-1.832886 9.62464,0 0,1.832886 -3.86414,0 z" />
      </g>
    </g>
    <path
       style="fill:none;fill-rule:evenodd;stroke:#afaca5;stroke-width:0.77200001;stroke-linecap:butt;stroke-linejoin:miter;stroke-miterlimit:4;stroke-dasharray:0.772, 2.316;stroke-dashoffset:0;stroke-opacity:1"
       d="m 143.12995,252.36222 165.16869,0"
       id="path3441" />
  </g>
</svg>
