<?xml version="1.0" encoding="UTF-8" standalone="no"?>
<svg xmlns="http://www.w3.org/2000/svg" version="1.1" viewBox="0 0 243.27439 45.430981">
  <g
     transform="translate(-312.64852,-503.93243)"
     id="layer1">
    <g
       id="text3532"
       style="font-style:normal;font-weight:normal;font-size:16.25px;line-height:125%;font-family:sans-serif;letter-spacing:0.5px;word-spacing:0px;fill:#807c73;fill-opacity:1;stroke:none;stroke-width:1px;stroke-linecap:butt;stroke-linejoin:miter;stroke-opacity:1">
      <path
         id="path4802"
         style="font-style:normal;font-variant:normal;font-weight:bold;font-stretch:normal;font-size:16.25px;font-family:'Trebuchet MS';-inkscape-font-specification:'Trebuchet MS Bold';letter-spacing:1px;fill:#807c73;fill-opacity:1"
         d="m 433.45831,514.55682 0,4.27674 -2.06299,0 0,-11.61621 q 2.06299,-0.0873 2.41211,-0.0873 2.7533,0 4.02283,0.84899 1.27747,0.84107 1.27747,2.63428 0,3.99903 -4.71314,3.99903 -0.34912,0 -0.93628,-0.0556 z m 0,-5.5542 0,3.72132 q 0.52368,0.0555 0.8252,0.0555 1.41235,0 2.06299,-0.46814 0.65063,-0.47607 0.65063,-1.53931 0,-1.80908 -2.91199,-1.80908 -0.32531,0 -0.62683,0.0397 z" />
      <path
         id="path4804"
         style="font-style:normal;font-variant:normal;font-weight:bold;font-stretch:normal;font-size:16.25px;font-family:'Trebuchet MS';-inkscape-font-specification:'Trebuchet MS Bold';letter-spacing:1px;fill:#807c73;fill-opacity:1"
         d="m 444.01154,509.0423 0,2.72155 3.84033,0 0,1.75355 -3.84033,0 0,3.48327 5.26855,0 0,1.83289 -7.33154,0 0,-11.62415 7.41882,0 0,1.83289 -5.35583,0 z" />
      <path
         id="path4806"
         style="font-style:normal;font-variant:normal;font-weight:bold;font-stretch:normal;font-size:16.25px;font-family:'Trebuchet MS';-inkscape-font-specification:'Trebuchet MS Bold';letter-spacing:1px;fill:#807c73;fill-opacity:1"
         d="m 460.1507,507.82831 -0.849,1.70593 q -0.69031,-0.69031 -2.22168,-0.69031 -1.45203,0 -2.38037,1.22193 -0.92835,1.21399 -0.92835,3.07861 0,1.86462 0.85693,2.95959 0.86487,1.09498 2.30103,1.09498 1.64246,0 2.5708,-1.17432 l 0.96008,1.66626 q -1.26159,1.34094 -3.69751,1.34094 -2.43591,0 -3.78479,-1.60278 -1.34887,-1.60279 -1.34887,-4.37195 0,-2.57874 1.4917,-4.30847 1.49963,-1.73767 3.83239,-1.73767 1.99952,0 3.19764,0.81726 z" />
      <path
         id="path4808"
         style="font-style:normal;font-variant:normal;font-weight:bold;font-stretch:normal;font-size:16.25px;font-family:'Trebuchet MS';-inkscape-font-specification:'Trebuchet MS Bold';letter-spacing:1px;fill:#807c73;fill-opacity:1"
         d="m 469.80731,518.83356 0,-5.23682 -4.62585,0 0,5.23682 -2.06299,0 0,-11.62415 2.06299,0 0,4.55444 4.62585,0 0,-4.55444 2.03919,0 0,11.62415 -2.03919,0 z" />
      <path
         id="path4810"
         style="font-style:normal;font-variant:normal;font-weight:bold;font-stretch:normal;font-size:16.25px;font-family:'Trebuchet MS';-inkscape-font-specification:'Trebuchet MS Bold';letter-spacing:1px;fill:#807c73;fill-opacity:1"
         d="m 486.06549,518.84149 -1.99951,0 -1.20606,-6.26831 -2.34069,6.41907 -0.73792,0 -2.3407,-6.41907 -1.25366,6.26831 -1.99158,0 2.3407,-11.63208 1.09497,0 2.51526,7.83142 2.45972,-7.83142 1.08703,0 2.37244,11.63208 z" />
      <path
         id="path4812"
         style="font-style:normal;font-variant:normal;font-weight:bold;font-stretch:normal;font-size:16.25px;font-family:'Trebuchet MS';-inkscape-font-specification:'Trebuchet MS Bold';letter-spacing:1px;fill:#807c73;fill-opacity:1"
         d="m 495.13495,518.83356 -0.849,-2.35657 -3.98315,0 -0.80933,2.35657 -2.29309,0 4.63379,-11.78284 0.90454,0 4.67346,11.78284 -2.27722,0 z m -2.84851,-8.22815 -1.39649,4.2926 2.79297,0 -1.39648,-4.2926 z" />
      <path
         id="path4814"
         style="font-style:normal;font-variant:normal;font-weight:bold;font-stretch:normal;font-size:16.25px;font-family:'Trebuchet MS';-inkscape-font-specification:'Trebuchet MS Bold';letter-spacing:1px;fill:#807c73;fill-opacity:1"
         d="m 507.25922,518.99225 -5.64148,-7.35535 0,7.20459 -1.98365,0 0,-11.63208 0.99183,0 5.49072,7.01416 0,-7.01416 1.98364,0 0,11.78284 -0.84106,0 z" />
      <path
         id="path4816"
         style="font-style:normal;font-variant:normal;font-weight:bold;font-stretch:normal;font-size:16.25px;font-family:'Trebuchet MS';-inkscape-font-specification:'Trebuchet MS Bold';letter-spacing:1px;fill:#807c73;fill-opacity:1"
         d="m 519.11371,518.99225 -5.64148,-7.35535 0,7.20459 -1.98364,0 0,-11.63208 0.99182,0 5.49072,7.01416 0,-7.01416 1.98364,0 0,11.78284 -0.84106,0 z" />
      <path
         id="path4818"
         style="font-style:normal;font-variant:normal;font-weight:bold;font-stretch:normal;font-size:16.25px;font-family:'Trebuchet MS';-inkscape-font-specification:'Trebuchet MS Bold';letter-spacing:1px;fill:#807c73;fill-opacity:1"
         d="m 522.78766,512.9223 q 0,-2.48352 1.35681,-4.19739 1.36475,-1.7218 3.64197,-1.7218 2.50732,0 3.8324,1.55518 1.32507,1.55517 1.32507,4.36401 0,2.80884 -1.38855,4.45923 -1.38062,1.65039 -3.92761,1.65039 -2.3407,0 -3.59436,-1.63452 -1.24573,-1.63452 -1.24573,-4.4751 z m 2.14233,0 q 0,2.03919 0.69031,3.15796 0.69031,1.11878 2.00745,1.11878 1.54724,0 2.35656,-1.09498 0.81726,-1.09497 0.81726,-3.18176 0,-4.0863 -3.01513,-4.0863 -1.38062,0 -2.11853,1.11084 -0.73792,1.1029 -0.73792,2.97546 z" />
      <path
         id="path4820"
         style="font-style:normal;font-variant:normal;font-weight:bold;font-stretch:normal;font-size:16.25px;font-family:'Trebuchet MS';-inkscape-font-specification:'Trebuchet MS Bold';letter-spacing:1px;fill:#807c73;fill-opacity:1"
         d="m 540.10114,518.99225 -1.13465,0 -4.34814,-11.78284 2.26928,0 2.68982,7.85523 2.84058,-7.85523 2.22168,0 -4.53857,11.78284 z" />
      <path
         id="path4822"
         style="font-style:normal;font-variant:normal;font-weight:bold;font-stretch:normal;font-size:16.25px;font-family:'Trebuchet MS';-inkscape-font-specification:'Trebuchet MS Bold';letter-spacing:1px;fill:#807c73;fill-opacity:1"
         d="m 553.64569,518.83356 -0.849,-2.35657 -3.98315,0 -0.80933,2.35657 -2.29309,0 4.63379,-11.78284 0.90454,0 4.67346,11.78284 -2.27722,0 z m -2.84851,-8.22815 -1.39648,4.2926 2.79296,0 -1.39648,-4.2926 z m 2.30896,-6.67298 -1.79321,2.32483 -1.50757,0 1.34094,-2.32483 1.95984,0 z" />
    </g>
    <g
       transform="matrix(0.51864151,0,0,0.51864151,334.2986,594.96323)"
       id="g3540">
      <g
         id="g3542"
         transform="matrix(1.25,0,0,-1.25,89.343685,-104.30827)">
        <path
           d="m 0,0 0,13.107 13.109,0 0,13.108 -26.216,0 0,-13.108 -13.11,0 0,13.108 13.11,0 0,13.112 26.216,0 0,13.109 -39.326,0 0,-13.109 -13.11,0 0,13.109 -65.543,0 0,-65.545 91.763,0 0,13.109 L 0,0 Z m -39.327,0 -13.109,0 0,13.107 13.109,0 0,-13.107 z"
           style="fill:#c51f46;fill-opacity:1;fill-rule:nonzero;stroke:none"
           id="path3544" />
      </g>
      <path
         d="m 105.72981,-104.30789 -16.385,0 0,16.386246 16.385,0 0,-16.386246 z"
         style="fill:#005595;fill-opacity:1;fill-rule:nonzero;stroke:none"
         id="path3546" />
    </g>
    <g
       id="text4439"
       style="font-style:normal;font-weight:normal;font-size:16.25px;line-height:125%;font-family:sans-serif;letter-spacing:2.58999991px;word-spacing:0px;fill:#afaca5;fill-opacity:1;stroke:none;stroke-width:0.375;stroke-linecap:butt;stroke-linejoin:round;stroke-miterlimit:4;stroke-dasharray:none;stroke-opacity:1">
      <path
         id="path4785"
         style="font-style:normal;font-variant:normal;font-weight:normal;font-stretch:normal;font-size:16.25px;line-height:125%;font-family:'Trebuchet MS';-inkscape-font-specification:'Trebuchet MS';letter-spacing:2.58999991px;fill:#afaca5;fill-opacity:1;stroke:none;stroke-width:0.375;stroke-linejoin:round;stroke-miterlimit:4;stroke-dasharray:none;stroke-opacity:1"
         d="m 433.03679,529.4538 0,4.47509 -1.58691,0 0,-11.62414 q 1.80115,-0.0793 2.17407,-0.0793 5.06226,0 5.06226,3.38806 0,3.91968 -4.4751,3.91968 -0.26977,0 -1.17432,-0.0793 z m 0,-5.72083 0,4.2926 q 1.0077,0.0793 1.06324,0.0793 2.95166,0 2.95166,-2.32483 0,-2.12646 -3.15003,-2.12646 -0.31738,0 -0.86487,0.0793 z" />
      <path
         id="path4787"
         style="font-style:normal;font-variant:normal;font-weight:normal;font-stretch:normal;font-size:16.25px;line-height:125%;font-family:'Trebuchet MS';-inkscape-font-specification:'Trebuchet MS';letter-spacing:2.58999991px;fill:#afaca5;fill-opacity:1;stroke:none;stroke-width:0.375;stroke-linejoin:round;stroke-miterlimit:4;stroke-dasharray:none;stroke-opacity:1"
         d="m 447.92538,533.92889 -0.80139,-2.45178 -4.32434,0 -0.85694,2.45178 -1.77734,0 4.72107,-11.78283 0.42053,0 4.37988,11.78283 -1.76147,0 z m -2.90405,-8.73596 -1.80115,5.1178 3.45154,0 -1.65039,-5.1178 z" />
      <path
         id="path4789"
         style="font-style:normal;font-variant:normal;font-weight:normal;font-stretch:normal;font-size:16.25px;line-height:125%;font-family:'Trebuchet MS';-inkscape-font-specification:'Trebuchet MS';letter-spacing:2.58999991px;fill:#afaca5;fill-opacity:1;stroke:none;stroke-width:0.375;stroke-linejoin:round;stroke-miterlimit:4;stroke-dasharray:none;stroke-opacity:1"
         d="m 459.96545,533.92889 -3.10241,-4.99084 q -0.53162,0 -1.68213,-0.0793 l 0,5.07019 -1.58692,0 0,-11.62414 q 0.0873,0 1.22986,-0.0555 1.15051,-0.0635 1.67419,-0.0635 4.18946,0 4.18946,3.33252 0,1.09497 -0.67444,1.97571 -0.67444,0.8728 -1.60278,1.08703 l 3.37219,5.3479 -1.81702,0 z m -4.78454,-10.19592 0,3.77686 q 0.57129,0.0793 1.11084,0.0793 1.42822,0 2.07885,-0.4602 0.65064,-0.46021 0.65064,-1.64246 0,-0.97595 -0.69824,-1.40442 -0.69825,-0.42846 -2.20581,-0.42846 -0.23804,0 -0.93628,0.0793 z" />
      <path
         id="path4791"
         style="font-style:normal;font-variant:normal;font-weight:normal;font-stretch:normal;font-size:16.25px;line-height:125%;font-family:'Trebuchet MS';-inkscape-font-specification:'Trebuchet MS';letter-spacing:2.58999991px;fill:#afaca5;fill-opacity:1;stroke:none;stroke-width:0.375;stroke-linejoin:round;stroke-miterlimit:4;stroke-dasharray:none;stroke-opacity:1"
         d="m 469.14908,523.73297 0,10.19592 -1.58692,0 0,-10.19592 -3.69751,0 0,-1.42822 9.14856,0 0,1.42822 -3.86413,0 z" />
      <path
         id="path4793"
         style="font-style:normal;font-variant:normal;font-weight:normal;font-stretch:normal;font-size:16.25px;line-height:125%;font-family:'Trebuchet MS';-inkscape-font-specification:'Trebuchet MS';letter-spacing:2.58999991px;fill:#afaca5;fill-opacity:1;stroke:none;stroke-width:0.375;stroke-linejoin:round;stroke-miterlimit:4;stroke-dasharray:none;stroke-opacity:1"
         d="m 484.45819,534.08759 -6.00646,-8.49793 0,8.33923 -1.50757,0 0,-11.62414 0.63476,0 5.84778,8.03772 0,-8.03772 1.50757,0 0,11.78284 -0.47608,0 z" />
      <path
         id="path4795"
         style="font-style:normal;font-variant:normal;font-weight:normal;font-stretch:normal;font-size:16.25px;line-height:125%;font-family:'Trebuchet MS';-inkscape-font-specification:'Trebuchet MS';letter-spacing:2.58999991px;fill:#afaca5;fill-opacity:1;stroke:none;stroke-width:0.375;stroke-linejoin:round;stroke-miterlimit:4;stroke-dasharray:none;stroke-opacity:1"
         d="m 491.49949,523.73297 0,3.22937 3.84033,0 0,1.34888 -3.84033,0 0,4.18945 5.26855,0 0,1.42822 -6.85547,0 0,-11.62414 6.94275,0 0,1.42822 -5.35583,0 z" />
      <path
         id="path4797"
         style="font-style:normal;font-variant:normal;font-weight:normal;font-stretch:normal;font-size:16.25px;line-height:125%;font-family:'Trebuchet MS';-inkscape-font-specification:'Trebuchet MS';letter-spacing:2.58999991px;fill:#afaca5;fill-opacity:1;stroke:none;stroke-width:0.375;stroke-linejoin:round;stroke-miterlimit:4;stroke-dasharray:none;stroke-opacity:1"
         d="m 507.64967,533.92889 -3.10241,-4.99084 q -0.53162,0 -1.68213,-0.0793 l 0,5.07019 -1.58692,0 0,-11.62414 q 0.0873,0 1.22986,-0.0555 1.15051,-0.0635 1.6742,-0.0635 4.18945,0 4.18945,3.33252 0,1.09497 -0.67444,1.97571 -0.67444,0.8728 -1.60278,1.08703 l 3.37219,5.3479 -1.81702,0 z m -4.78454,-10.19592 0,3.77686 q 0.57129,0.0793 1.11084,0.0793 1.42822,0 2.07885,-0.4602 0.65064,-0.46021 0.65064,-1.64246 0,-0.97595 -0.69824,-1.40442 -0.69824,-0.42846 -2.20581,-0.42846 -0.23804,0 -0.93628,0.0793 z" />
      <path
         id="path4799"
         style="font-style:normal;font-variant:normal;font-weight:normal;font-stretch:normal;font-size:16.25px;line-height:125%;font-family:'Trebuchet MS';-inkscape-font-specification:'Trebuchet MS';letter-spacing:2.58999991px;fill:#afaca5;fill-opacity:1;stroke:none;stroke-width:0.375;stroke-linejoin:round;stroke-miterlimit:4;stroke-dasharray:none;stroke-opacity:1"
         d="m 512.72319,533.39728 0.57922,-1.45996 q 0.44434,0.32531 1.10291,0.54748 0.6665,0.21424 1.19018,0.21424 0.92835,0 1.4917,-0.50782 0.56336,-0.50781 0.56336,-1.29333 0,-0.58716 -0.31738,-1.08704 -0.30945,-0.50781 -1.57105,-1.1029 l -0.93628,-0.4364 q -1.19018,-0.55542 -1.66626,-1.31714 -0.46814,-0.76172 -0.46814,-1.83289 0,-1.30127 0.92041,-2.1582 0.92041,-0.85694 2.3645,-0.85694 1.9281,0 2.68189,0.62684 l -0.46814,1.38061 q -0.31738,-0.2301 -0.96802,-0.44434 -0.65063,-0.21423 -1.20605,-0.21423 -0.80933,0 -1.27747,0.46021 -0.4602,0.4602 -0.4602,1.18225 0,0.44433 0.16662,0.80932 0.16663,0.36499 0.46021,0.61097 0.30151,0.24597 1.22192,0.6903 l 0.95215,0.45227 q 1.19018,0.56336 1.66626,1.34888 0.48401,0.77759 0.48401,1.98364 0,1.30921 -1.0553,2.22168 -1.04736,0.91248 -2.80884,0.91248 -1.54724,0 -2.64221,-0.72998 z" />
    </g>
  </g>
</svg>
